<?xml version="1.0" encoding="UTF-8" standalone="no"?>
<svg
   xmlns:dc="http://purl.org/dc/elements/1.1/"
   xmlns:cc="http://creativecommons.org/ns#"
   xmlns:rdf="http://www.w3.org/1999/02/22-rdf-syntax-ns#"
   xmlns:svg="http://www.w3.org/2000/svg"
   xmlns="http://www.w3.org/2000/svg"
   id="svg8"
   version="1.1"
   viewBox="0 0 266.7 184.15"
   height="7.25in"
   width="10.5in">
  <defs
     id="defs2">
    <clipPath
       id="clipPath821"
       clipPathUnits="userSpaceOnUse">
      <rect
         y="53.583344"
         x="393.8512"
         height="43.089287"
         width="72.571426"
         id="rect823"
         style="opacity:1;fill:#ffffff;fill-opacity:1;stroke:none;stroke-width:0.26458332;stroke-opacity:1" />
    </clipPath>
    <clipPath
       id="clipPath863"
       clipPathUnits="userSpaceOnUse">
      <ellipse
         ry="32.505955"
         rx="38.931549"
         cy="-56.029747"
         cx="370.79462"
         id="ellipse865"
         style="opacity:1;fill:#ffffff;fill-opacity:1;stroke:none;stroke-width:0.17922369;stroke-opacity:1" />
    </clipPath>
  </defs>
  <metadata
     id="metadata5">
    <rdf:RDF>
      <cc:Work
         rdf:about="">
        <dc:format>image/svg+xml</dc:format>
        <dc:type
           rdf:resource="http://purl.org/dc/dcmitype/StillImage" />
        <dc:title></dc:title>
      </cc:Work>
    </rdf:RDF>
  </metadata>
  <g
     transform="translate(0,-112.85)"
     id="layer1">
    <path
       d="m 162.90817,116.32751 a 89.580488,88.824429 0 0 0 -89.580657,88.82392 89.580488,88.824429 0 0 0 89.580657,88.82481 89.580488,88.824429 0 0 0 89.57969,-88.82481 89.580488,88.824429 0 0 0 -89.57969,-88.82392 z m -35.39662,62.62441 a 26.959299,23.643846 0 0 1 26.95955,23.64405 26.959299,23.643846 0 0 1 -26.95955,23.64403 26.959299,23.643846 0 0 1 -26.95954,-23.64403 26.959299,23.643846 0 0 1 26.95954,-23.64405 z m 67.68328,0 a 26.959299,23.643846 0 0 1 26.95867,23.64405 26.959299,23.643846 0 0 1 -26.95867,23.64403 26.959299,23.643846 0 0 1 -26.95954,-23.64403 26.959299,23.643846 0 0 1 26.95954,-23.64405 z m -78.57616,60.23495 v 0 c 1.24976,-0.0433 2.66846,0.1246 4.24667,0.55915 3.95039,1.08781 7.4778,0.62261 11.46713,1.54202 0.54508,0.12561 1.29955,0.0632 1.73096,0.34946 0.2238,-0.0152 0.44721,-0.0321 0.67135,-0.0428 2.51382,-0.11919 5.02834,-0.0793 7.54342,-0.048 2.27559,0.1273 4.55815,0.0357 6.83676,0.0218 4.18149,0.008 8.36335,0.0101 12.54488,0.008 3.06184,-0.002 6.12369,-9e-4 9.18552,-9e-4 3.30094,-1.1e-4 6.6021,-1e-5 9.90309,0 3.57765,4e-5 7.1555,0 10.73318,0 0.0574,0.24667 8.12392,-0.18374 8.12954,0 0,9e-4 -4e-5,0.002 0,0.003 0.39807,-0.003 0.79609,-0.003 1.36895,-0.003 h 5.32624 c 10.97124,0 12.77323,8.90815 5.42057,11.84778 -0.77938,0.7579 -1.72763,1.4961 -2.8813,2.18854 -0.44006,0.26415 -2.31205,1.39685 -2.50844,1.45817 -0.2033,0.0636 0.51229,-0.6512 0.3493,-0.51808 -3.09249,2.52496 -2.91217,3.24345 -7.87731,4.18836 -0.0708,-0.005 -0.13237,-0.005 -0.20233,-0.007 -0.31005,0.44821 -0.36003,0.60957 0.11797,0.20621 -1.05491,1.14657 -1.84319,2.58639 -3.16436,3.43961 -2.61573,1.68938 -3.92434,1.48116 -6.44388,1.48089 -0.55191,-9e-5 -1.56064,0.52232 -1.65656,0 -0.22408,1.3e-4 -0.44814,0 -0.67226,0 -2.42618,0 -4.85236,1.8e-4 -7.27854,-0.007 -2.76116,0.005 -5.52373,0.0861 -8.28374,-0.0201 -0.72061,-0.0326 -1.43189,-0.0375 -2.13829,-0.021 -2.6e-4,1.1e-4 0,-8e-5 0,0 -1.21432,0.39012 -2.68067,0.61413 -4.42539,0.59758 v 0 c -2.94432,-0.0277 -5.76601,1.22445 -8.721,1.04573 -0.76581,-0.0463 -2.14438,0.37724 -2.2735,-0.35118 -0.005,-0.0286 -0.0123,-0.0603 -0.0181,-0.0891 -2.03281,0.18263 -5.40013,0.44145 -7.22684,0.14067 -1.43917,-0.237 -2.80129,-0.79202 -4.20221,-1.18817 -0.0558,-0.0397 -0.11113,-0.0806 -0.16695,-0.12055 -0.86132,0.0478 -1.63074,0.0808 -1.70827,0.0847 -5.20086,-1.23114 -4.2643,-0.42092 -7.26311,-3.62398 -0.64215,-0.11277 -0.75884,-0.13644 -1.65475,-0.29179 -0.76037,-0.28601 -1.42947,-0.58061 -2.02671,-0.88764 -0.34382,-0.008 -0.68108,-0.17362 -0.97798,-0.55826 -1.24396,-0.77825 -2.14382,-1.6498 -2.9466,-2.69352 -1.00274,-0.29527 -3.69991,-0.53849 -2.8668,-1.12617 0.17275,-0.1219 0.36068,-0.18846 0.55703,-0.22192 -1.04205,-0.18952 -2.10253,-0.31982 -3.08632,-0.68931 -1.21688,-0.45703 -6.07304,-4.439 -6.31964,-4.63219 -1.15575,-0.90537 -1.75513,-1.68875 -1.94232,-2.37289 -3.45851,-3.9257 -1.44577,-9.42986 4.80094,-9.64875 z m 70.76963,15.17035 c -0.17222,3.30769 -0.19123,3.66783 -0.26038,4.99475 2.3e-4,0.005 0,0.0135 0,0.0174 0.10832,-2.0743 0.20749,-3.97375 0.26221,-5.01224 z m -0.26038,5.01223 c -0.0446,0.85755 -0.0822,1.57487 -0.16959,3.25616 0.053,-1.01443 0.0995,-1.89684 0.16959,-3.23871 -3.7e-4,-0.007 0,-0.0101 0,-0.0174 z m -0.16959,3.25616 c -0.053,1.013 -0.1127,2.15821 -0.16871,3.23429 v 0 c -0.056,1.07615 0.0809,-1.56436 0.16784,-3.23429 z m -62.19828,-5.71032 c 0,0.005 0.005,0.007 0.007,0.0101 0.0123,0.005 0.0316,0.007 0.039,0.0102 0,0 0,-0.005 -0.005,-0.005 -0.007,-0.005 -0.009,-0.005 -0.0427,-0.0152 z m 31.85937,6.21092 c -0.1738,0.0118 -0.406,0.0664 -0.63142,0.1153 0,0.0135 0.005,0.0277 0.005,0.0421 0.37597,0.11445 0.81147,0.29535 0.8954,0.0375 0.0546,-0.16721 -0.0679,-0.20885 -0.26853,-0.1948 z m -10.43108,0.35906 c -0.2563,0.0179 -0.52139,0.0407 -0.77477,0.0551 -0.1127,0.63058 -0.21288,1.23669 -0.27395,1.77965 0.58307,-0.32108 0.89182,-0.97886 1.04872,-1.83471 z m 9.86227,0.27349 c 0.2048,1.25025 0.72071,2.31996 1.82258,3.04993 1.17521,0.77856 1.50146,0.0769 1.40889,-1.32271 -0.56961,-0.2067 -1.16118,-0.52395 -2.288,-1.20914 -0.11727,-0.0713 -0.12851,-0.25314 -0.24673,-0.32328 -0.17187,-0.10229 -0.44257,-0.14675 -0.69674,-0.1948 z m -16.47857,0.34944 c -0.009,0.0864 0.68874,0.8915 0.78744,0.6334 0.0105,-0.0277 0.0191,-0.0583 0.0288,-0.0866 -0.25408,-0.17968 -0.5056,-0.36311 -0.76567,-0.53466 -0.0334,-0.0223 -0.0497,-0.0247 -0.0507,-0.0118 z"
       style="opacity:1;fill:#ff00ff;fill-opacity:1;stroke:none;stroke-width:1.02362561;stroke-opacity:1"
       id="path876" />
  </g>
</svg>
