<?xml version="1.0" encoding="UTF-8" standalone="no"?>
<svg
   xmlns:dc="http://purl.org/dc/elements/1.1/"
   xmlns:cc="http://creativecommons.org/ns#"
   xmlns:rdf="http://www.w3.org/1999/02/22-rdf-syntax-ns#"
   xmlns:svg="http://www.w3.org/2000/svg"
   xmlns="http://www.w3.org/2000/svg"
   id="svg8"
   version="1.1"
   viewBox="0 0 266.7 184.15"
   height="7.25in"
   width="10.5in">
  <defs
     id="defs2">
    <clipPath
       id="clipPath821"
       clipPathUnits="userSpaceOnUse">
      <rect
         y="53.583344"
         x="393.8512"
         height="43.089287"
         width="72.571426"
         id="rect823"
         style="opacity:1;fill:#ffffff;fill-opacity:1;stroke:none;stroke-width:0.26458332;stroke-opacity:1" />
    </clipPath>
    <clipPath
       id="clipPath863"
       clipPathUnits="userSpaceOnUse">
      <ellipse
         ry="32.505955"
         rx="38.931549"
         cy="-56.029747"
         cx="370.79462"
         id="ellipse865"
         style="opacity:1;fill:#ffffff;fill-opacity:1;stroke:none;stroke-width:0.17922369;stroke-opacity:1" />
    </clipPath>
  </defs>
  <metadata
     id="metadata5">
    <rdf:RDF>
      <cc:Work
         rdf:about="">
        <dc:format>image/svg+xml</dc:format>
        <dc:type
           rdf:resource="http://purl.org/dc/dcmitype/StillImage" />
        <dc:title></dc:title>
      </cc:Work>
    </rdf:RDF>
  </metadata>
  <g
     transform="translate(0,-112.85)"
     id="layer1">
    <path
       id="path815"
       d="m 146.76223,115.57133 a 87.690456,90.336356 0 0 0 -87.690081,90.33623 87.690456,90.336356 0 0 0 87.690081,90.33625 87.690456,90.336356 0 0 0 87.69094,-90.33625 87.690456,90.336356 0 0 0 -87.69094,-90.33623 z m -36.16006,60.22476 a 25.521842,24.314145 0 0 1 25.52211,24.31382 25.521842,24.314145 0 0 1 -25.52211,24.31383 25.521842,24.314145 0 0 1 -25.5221,-24.31383 25.521842,24.314145 0 0 1 25.5221,-24.31382 z m 70.00283,0 a 25.521842,24.314145 0 0 1 25.52119,24.31382 25.521842,24.314145 0 0 1 -25.52119,24.31383 25.521842,24.314145 0 0 1 -25.52209,-24.31383 25.521842,24.314145 0 0 1 25.52209,-24.31382 z m -78.34229,62.84256 h 83.76415 v 14.40108 h -83.76415 z"
       style="opacity:1;fill:#ff2af6;fill-opacity:1;stroke:none;stroke-width:0.29322794;stroke-opacity:1" />
  </g>
</svg>
